<?xml version="1.0" standalone="no"?>
<!DOCTYPE svg PUBLIC "-//W3C//DTD SVG 20010904//EN"
 "http://www.w3.org/TR/2001/REC-SVG-20010904/DTD/svg10.dtd">
<svg version="1.0" xmlns="http://www.w3.org/2000/svg"
 width="497.000000pt" height="497.000000pt" viewBox="0 0 497.000000 497.000000"
 preserveAspectRatio="xMidYMid meet">
<metadata>
Created by potrace 1.14, written by Peter Selinger 2001-2017
</metadata>
<g transform="translate(0.000000,497.000000) scale(0.100000,-0.100000)"
fill="#000000" stroke="none">
<path d="M0 2485 l0 -2485 2485 0 2485 0 0 2485 0 2485 -2485 0 -2485 0 0
-2485z m1074 1688 c5 -19 132 -592 327 -1483 66 -300 123 -555 127 -568 5 -16
19 24 54 155 108 411 499 1879 504 1896 5 16 32 17 372 17 l367 0 265 -1059
c146 -583 268 -1057 271 -1053 4 4 31 122 62 262 91 410 221 1005 313 1425 47
215 88 398 90 408 5 16 29 17 315 17 170 0 309 -2 309 -4 0 -3 -149 -615 -315
-1296 -35 -146 -105 -434 -155 -640 -50 -206 -115 -474 -145 -595 -29 -121
-70 -289 -90 -372 l-37 -153 -327 0 -326 0 -305 1143 -305 1143 -88 -330 c-48
-182 -178 -671 -288 -1086 -110 -415 -207 -781 -216 -812 l-16 -58 -333 0
c-308 0 -333 1 -338 18 -3 9 -52 215 -110 457 -160 673 -512 2147 -575 2408
-23 93 -41 170 -41 173 0 2 141 4 314 4 291 0 315 -1 320 -17z"/>
</g>
</svg>
