<?xml version="1.0" standalone="no"?>
<!DOCTYPE svg PUBLIC "-//W3C//DTD SVG 20010904//EN"
 "http://www.w3.org/TR/2001/REC-SVG-20010904/DTD/svg10.dtd">
<svg version="1.0" xmlns="http://www.w3.org/2000/svg"
 width="500.000000pt" height="500.000000pt" viewBox="0 0 500.000000 500.000000"
 preserveAspectRatio="xMidYMid meet">
<metadata>
Created by potrace 1.14, written by Peter Selinger 2001-2017
</metadata>
<g transform="translate(0.000000,500.000000) scale(0.100000,-0.100000)"
fill="#000000" stroke="none">
<path d="M1245 4394 c-677 -339 -1218 -614 -1228 -627 -20 -24 -18 -87 3 -112
7 -8 557 -287 1223 -620 1085 -542 1215 -605 1257 -605 42 0 173 63 1251 601
662 331 1212 608 1221 617 26 22 33 74 14 109 -13 26 -174 110 -1223 634
-1084 542 -1213 604 -1258 606 -49 1 -107 -27 -1260 -603z"/>
<path d="M3588 2533 c-768 -385 -910 -454 -948 -460 -8 -1 -35 -6 -60 -11 -58
-11 -150 -6 -222 13 -33 8 -419 195 -912 442 l-856 428 -281 -140 c-229 -114
-284 -145 -296 -169 -18 -34 -11 -86 15 -108 9 -9 558 -286 1220 -617 1099
-549 1208 -601 1252 -601 45 0 154 52 1259 605 884 442 1215 612 1227 630 19
29 14 86 -10 111 -9 8 -139 77 -290 152 l-274 137 -824 -412z"/>
<path d="M303 1682 c-150 -76 -279 -146 -288 -157 -18 -23 -15 -86 6 -111 7
-9 558 -288 1223 -621 l1210 -605 56 4 c49 4 182 68 1250 602 696 348 1204
608 1218 622 12 14 22 36 22 49 0 62 -12 70 -306 218 l-282 141 -854 -426
c-469 -235 -878 -434 -910 -443 -84 -24 -200 -25 -282 -3 -45 12 -361 165
-919 443 -468 234 -855 425 -861 425 -6 -1 -134 -63 -283 -138z"/>
</g>
</svg>
