<svg xmlns="http://www.w3.org/2000/svg" height="75" viewBox="0 96 960 960" width="75"><path d="M199 949q-38.212 0-65.106-26.894Q107 895.213 107 857V456q0-105.75 73.833-179.875Q254.667 202 360 202h240q105.75 0 179.875 74.125T854 456v401q0 38.213-27.625 65.106Q798.75 949 763 949H199Zm0-92h564V456q0-66.938-48.031-114.969Q666.938 293 600 293H360q-67.888 0-114.444 48.031T199 456v401Zm160.655-278q-36.017 0-59.336-23.664Q277 531.672 277 495.655q0-36.017 23.664-59.836Q324.328 412 360.345 412q36.017 0 59.836 24.401Q444 460.803 444 496.345q0 36.017-24.401 59.336Q395.197 579 359.655 579Zm240 0q-36.017 0-59.336-23.664Q517 531.672 517 495.655q0-36.017 23.664-59.836Q564.328 412 600.345 412q36.017 0 59.836 24.401Q684 460.803 684 496.345q0 36.017-24.401 59.336Q635.197 579 599.655 579ZM288 857l-9-95q0-35.75 26.6-63.375T370 671h221q37.213 0 64.606 27.625Q683 726.25 683 762l-15 95h-69V755h-76l-7 102h-74l-3-102h-76v102h-75Zm-89 0h564-564Z"/></svg>