<svg xmlns="http://www.w3.org/2000/svg" height="75" viewBox="0 96 960 960" width="75"><path d="M435 993q-79-7-148-42.5t-118.579-92.154q-49.579-56.655-78.5-128.51Q61 657.98 61 575.946q0-85.862 33.163-162.137 33.162-76.276 90.37-133.43 57.207-57.155 133.79-90.767Q394.906 156 481 156q156.6 0 272.202 100.407Q868.805 356.813 895 507h-92q-17.556-81.022-69.794-143.313Q680.968 301.396 604 268v16.347q0 34.416-23.147 58.534Q557.706 367 522.836 367H439v84.701q0 17.874-12.5 27.586Q414 489 394.701 489H316v85h107v121h-64.517L162 499q-5 19.113-7 37.893t-2 37.835Q153 700 232.5 793 312 886 435 900.802V993Zm420-16L721 841q-21 12-43.46 19t-46.105 7q-75.098 0-127.767-52.294Q451 762.412 451 687t52.765-127.706Q556.529 507 631.941 507q75.412 0 127.736 52.335Q812 611.67 812 687.435 812 712 804.429 734q-7.572 22-19.429 43.141L921 911l-66 66ZM630.901 776q36.379 0 62.739-26.039t26.36-62.82q0-36.781-26.056-62.961Q667.889 598 631.085 598q-36.385 0-62.235 26.056Q543 650.111 543 686.916q0 36.804 25.761 62.944Q594.523 776 630.901 776Z"/></svg>