<?xml version="1.0" encoding="iso-8859-1"?>
<!-- Generator: Adobe Illustrator 19.0.0, SVG Export Plug-In . SVG Version: 6.00 Build 0)  -->
<svg version="1.1" id="Layer_1" xmlns="http://www.w3.org/2000/svg" xmlns:xlink="http://www.w3.org/1999/xlink" x="0px" y="0px" fill='black'
	 viewBox="0 0 503.592 503.592" style="enable-background:new 0 0 503.592 503.592;" xml:space="preserve" >
<g transform="translate(0 -1)">
	<g>
		<path d="M434.033,226.634h-32.308l-41.324-24.793c-1.354-0.816-2.898-1.241-4.469-1.241h-42.408
			c-4.336-9.22-7.632-15.669-9.371-18.983l36.124-7.225c2.256-0.443,4.244-1.779,5.519-3.688l32.716-49.083l39.867-7.975
			c2.256-0.443,4.244-1.779,5.519-3.688l17.356-26.034c2.655-3.992,1.579-9.381-2.404-12.036c-3.992-2.673-9.381-1.588-12.036,2.404
			l-15.36,23.049l-39.867,7.975c-2.256,0.443-4.244,1.779-5.519,3.688l-32.716,49.083l-34.868,6.975
			c-2.915-6.867-6.903-13.009-11.718-18.11c9.966-3.654,17.099-13.238,17.099-24.453c0-13.917-10.981-25.32-24.733-26.001
			c2.808-15.138,11.045-43.423,33.411-43.423c14.857,0,26.286-4.408,33.966-13.104c11.498-13.034,9.45-30.625,9.355-31.362
			c-0.59-4.729-4.816-8.044-9.624-7.506c-4.738,0.555-8.131,4.86-7.602,9.598c0.009,0.104,1.111,10.795-5.224,17.877
			c-4.244,4.738-11.273,7.142-20.87,7.142c-37.177,0-48.07,42.543-51.026,60.746h-19.439c-2.957-18.208-13.849-60.75-51.026-60.75
			c-9.598,0-16.627-2.395-20.87-7.142c-6.266-7.003-5.259-17.538-5.224-17.859c0.564-4.738-2.803-9.042-7.541-9.641
			c-4.773-0.616-9.095,2.777-9.685,7.532c-0.095,0.746-2.143,18.337,9.355,31.362c7.68,8.695,19.109,13.104,33.966,13.104
			c22.266,0,30.55,28.286,33.389,43.428c-13.742,0.691-24.711,12.09-24.711,26c0,11.209,7.124,20.788,17.081,24.447
			c-4.828,5.105-8.823,11.249-11.736,18.11l-34.832-6.968l-32.716-49.083c-1.276-1.909-3.263-3.246-5.519-3.688l-39.867-7.975
			l-15.36-23.049c-2.664-3.992-8.044-5.077-12.036-2.404c-3.983,2.655-5.059,8.044-2.404,12.036l17.356,26.034
			c1.276,1.909,3.263,3.246,5.519,3.688l39.867,7.975l32.716,49.083c1.276,1.909,3.263,3.246,5.519,3.688l36.126,7.225
			c-1.74,3.314-5.036,9.763-9.372,18.982H147.66c-1.571,0-3.115,0.425-4.469,1.241l-41.324,24.793H69.559
			c-4.79,0-8.678,3.888-8.678,8.678c0,4.79,3.888,8.678,8.678,8.678h34.712c1.571,0,3.115-0.425,4.469-1.241l41.324-24.793h32.134
			c-23.278,53.146-61.064,155.798-69.226,277.116c-0.286,4.148,2.421,7.914,6.448,8.973c0.451,0.122,2.3,0.547,5.189,0.547
			c4.582,0,11.785-1.093,20.142-6.292c21.926-13.645,39.186-46.657,51.454-98.553c12.206,24.066,28.756,46.63,49.46,67.328
			l6.135,6.135l6.135-6.135c20.691-20.691,37.235-43.248,49.44-67.306c12.213,51.733,29.498,84.858,51.471,98.531
			c8.348,5.198,15.551,6.292,20.133,6.292c2.89,0,4.738-0.425,5.189-0.547c4.027-1.059,6.734-4.825,6.456-8.973
			c-8.162-121.318-45.952-223.97-69.23-277.116h32.133l41.324,24.793c1.354,0.816,2.898,1.241,4.469,1.241h34.712
			c4.79,0,8.678-3.888,8.678-8.678C442.711,230.522,438.824,226.634,434.033,226.634z M251.8,148.533
			c18.021,0,32.881,17.266,34.551,39.494c-0.03,1.278-0.055,2.574-0.07,3.895h-68.972c-0.016-1.334-0.04-2.64-0.071-3.93
			C218.832,165.903,233.717,148.533,251.8,148.533z M286.441,209.278c0.223,8.262,0.64,17.017,1.2,26.034h-71.693
			c0.559-9.016,0.976-17.771,1.199-26.034H286.441z M213.705,265.029c0.391-2.641,0.733-6.504,1.074-12.361h74.03
			c0.342,5.853,0.684,9.716,1.075,12.356c0.399,4.566,0.821,9.133,1.258,13.678h-78.694
			C212.885,274.159,213.307,269.594,213.705,265.029z M210.694,296.058h82.204c0.953,8.998,1.942,17.75,2.921,26.034h-88.044
			C208.753,313.812,209.741,305.061,210.694,296.058z M205.661,339.448h92.273c1.256,10.004,2.428,18.86,3.406,26.034h-99.081
			C203.231,358.338,204.404,349.478,205.661,339.448z M225.762,113.821h52.068c4.782,0,8.678,3.896,8.678,8.678
			s-3.896,8.678-8.678,8.678h-52.068c-4.782,0-8.678-3.896-8.678-8.678S220.981,113.821,225.762,113.821z M131.057,485.891
			c9.456-115.351,45.556-212.249,67.541-262.161c-0.421,10.849-0.848,20.688-1.226,27.904
			c-3.339,42.363-9.076,87.528-12.349,111.719c-0.273,2.009-0.532,3.903-0.773,5.644l-0.295,2.117l0.003,0.008
			c-0.863,6.217-1.394,9.839-1.415,9.982C166.142,461.74,142.746,481.248,131.057,485.891z M251.8,448.47
			c-19.031-20.254-33.91-42.255-44.455-65.632h88.902C285.701,406.215,270.823,428.216,251.8,448.47z M321.123,381.565
			c-0.142-0.955-10.058-68.484-14.903-129.999c-0.376-7.218-0.801-17.037-1.222-27.837c21.976,49.902,58.069,146.767,67.533,262.094
			C360.694,481.153,337.42,461.584,321.123,381.565z"/>
	</g>
</g>
<g>
</g>
<g>
</g>
<g>
</g>
<g>
</g>
<g>
</g>
<g>
</g>
<g>
</g>
<g>
</g>
<g>
</g>
<g>
</g>
<g>
</g>
<g>
</g>
<g>
</g>
<g>
</g>
<g>
</g>
</svg>
